<svg width="17" height="16" viewBox="0 0 17 16" fill="none" xmlns="http://www.w3.org/2000/svg">
<path fill-rule="evenodd" clip-rule="evenodd" d="M5.58955 0H11.6021C14.3689 0 16.6125 2.239 16.6125 5V11C16.6125 13.761 14.3689 16 11.6021 16H5.58955C2.82278 16 0.579102 13.761 0.579102 11V5C0.579102 2.239 2.82278 0 5.58955 0ZM11.6021 14.5C13.5361 14.5 15.1094 12.93 15.1094 11V5C15.1094 3.07 13.5361 1.5 11.6021 1.5H5.58957C3.65555 1.5 2.08228 3.07 2.08228 5V11C2.08228 12.93 3.65555 14.5 5.58957 14.5H11.6021Z" fill="white"/>
<path fill-rule="evenodd" clip-rule="evenodd" d="M4.58752 8C4.58752 5.791 6.38227 4 8.59589 4C10.8095 4 12.6042 5.791 12.6042 8C12.6042 10.209 10.8095 12 8.59589 12C6.38227 12 4.58752 10.209 4.58752 8ZM6.09058 8C6.09058 9.378 7.21493 10.5 8.59583 10.5C9.97672 10.5 11.1011 9.378 11.1011 8C11.1011 6.621 9.97672 5.5 8.59583 5.5C7.21493 5.5 6.09058 6.621 6.09058 8Z" fill="white"/>
<ellipse cx="12.9048" cy="3.69999" rx="0.534119" ry="0.532997" fill="white"/>
</svg>
