<svg width="65" height="65" viewBox="0 0 65 65" fill="none" xmlns="http://www.w3.org/2000/svg">
<path d="M32.5 5.41675C17.55 5.41675 5.41669 17.5501 5.41669 32.5001C5.41669 47.4501 17.55 59.5834 32.5 59.5834C47.45 59.5834 59.5834 47.4501 59.5834 32.5001C59.5834 17.5501 47.45 5.41675 32.5 5.41675ZM19.1479 49.5084C20.3125 47.0709 27.4084 44.6876 32.5 44.6876C37.5917 44.6876 44.7146 47.0709 45.8521 49.5084C42.1688 52.4334 37.5375 54.1668 32.5 54.1668C27.4625 54.1668 22.8313 52.4334 19.1479 49.5084ZM49.725 45.5813C45.8521 40.8688 36.4542 39.2709 32.5 39.2709C28.5459 39.2709 19.1479 40.8688 15.275 45.5813C12.5125 41.9522 10.8334 37.4293 10.8334 32.5001C10.8334 20.5563 20.5563 10.8334 32.5 10.8334C44.4438 10.8334 54.1667 20.5563 54.1667 32.5001C54.1667 37.4293 52.4875 41.9522 49.725 45.5813V45.5813ZM32.5 16.2501C27.2459 16.2501 23.0209 20.4751 23.0209 25.7292C23.0209 30.9834 27.2459 35.2084 32.5 35.2084C37.7542 35.2084 41.9792 30.9834 41.9792 25.7292C41.9792 20.4751 37.7542 16.2501 32.5 16.2501ZM32.5 29.7917C30.2521 29.7917 28.4375 27.9772 28.4375 25.7292C28.4375 23.4813 30.2521 21.6667 32.5 21.6667C34.7479 21.6667 36.5625 23.4813 36.5625 25.7292C36.5625 27.9772 34.7479 29.7917 32.5 29.7917Z" fill="white"/>
</svg>
