<svg width="110" height="82" viewBox="0 0 110 82" fill="none" xmlns="http://www.w3.org/2000/svg">
<path d="M51.2266 6.01046L43.9863 0C16.7291 15.4555 3.95228 33.0576 0.54512 52.8063C-2.01025 69.1204 4.37817 82 20.5622 82C32.0613 82 43.1346 74.2722 45.6899 61.3927C47.8194 46.3665 39.3015 37.3508 28.6542 35.2042C32.9131 20.6073 50.8007 6.01046 51.2266 6.01046ZM87.8535 34.3456C92.5383 20.178 109.574 6.01046 110 6.01046L102.76 0C75.5026 15.4555 62.7257 33.0576 59.3186 52.8063C56.7632 69.1204 63.1516 82 79.3356 82C90.8347 82 101.908 74.2722 104.037 61.3927C106.593 46.3665 98.5008 36.4922 87.8535 34.3456Z" fill="url(#paint0_radial)" fill-opacity="0.2"/>
<defs>
<radialGradient id="paint0_radial" cx="0" cy="0" r="1" gradientUnits="userSpaceOnUse" gradientTransform="translate(31.4286 14.0571) rotate(60.9659) scale(77.7084 93.3337)">
<stop stop-color="#CBAF88"/>
<stop offset="1" stop-color="#4A4A4A"/>
</radialGradient>
</defs>
</svg>
