<svg width="52" height="52" viewBox="0 0 52 52" fill="none" xmlns="http://www.w3.org/2000/svg">
  <path opacity="0.4"
    d="M13.1627 24.7525H27.0361C27.6779 24.7525 28.1988 25.2734 28.1988 25.9152C28.1988 26.557 27.6779 27.0779 27.0361 27.0779H13.1627C12.5209 27.0779 12 26.557 12 25.9152C12 25.2734 12.5209 24.7525 13.1627 24.7525Z"
    fill="#cbaf88" />
  <mask id="mask0" mask-type="alpha" maskUnits="userSpaceOnUse" x="25" y="17" width="16" height="18">
    <path fill-rule="evenodd" clip-rule="evenodd" d="M25.8738 34.8308V16.9999H40.5023V34.8308H25.8738Z" fill="white" />
  </mask>
  <g mask="url(#mask0)">
    <path
      d="M26.8839 19.1579C27.0439 19.1579 27.2017 19.2018 27.3412 19.2873L36.4145 24.9167C36.6638 25.0721 36.8158 25.3411 36.8158 25.6315C36.8158 25.9219 36.6638 26.191 36.4145 26.3463L27.3412 31.9757C27.0771 32.1389 26.7432 32.1491 26.47 31.9994C26.1956 31.8508 26.0264 31.5682 26.0264 31.2609V20.0021C26.0264 19.6948 26.1956 19.4123 26.47 19.2637C26.5992 19.1928 26.7421 19.1579 26.8839 19.1579Z"
      fill="#cbaf88" />
  </g>
  <circle cx="26" cy="26" r="25.5" stroke="#cbaf88" />
  <circle cx="26" cy="26" r="25.5" stroke="#cbaf88" />
</svg>
