<svg width="27" height="27" viewBox="0 0 27 27" fill="none" xmlns="http://www.w3.org/2000/svg">
<path d="M13.5923 2.80933C7.60515 2.80933 2.76562 7.65183 2.76562 13.6427C2.76562 19.6335 7.60515 24.476 13.5923 24.476C19.5794 24.476 24.419 19.6335 24.419 13.6427C24.419 7.65183 19.5794 2.80933 13.5923 2.80933ZM13.5923 22.3094C8.81773 22.3094 4.93096 18.4202 4.93096 13.6427C4.93096 8.86517 8.81773 4.976 13.5923 4.976C18.3669 4.976 22.2536 8.86517 22.2536 13.6427C22.2536 18.4202 18.3669 22.3094 13.5923 22.3094ZM17.4791 8.226L13.5923 12.1152L9.70552 8.226L8.17896 9.7535L12.0657 13.6427L8.17896 17.5318L9.70552 19.0594L13.5923 15.1702L17.4791 19.0594L19.0056 17.5318L15.1189 13.6427L19.0056 9.7535L17.4791 8.226Z" fill="white"/>
</svg>
