<svg width="33" height="28" viewBox="0 0 33 28" fill="none" xmlns="http://www.w3.org/2000/svg">
<path d="M16.1963 4.90552C14.6284 4.90552 7.25021 6.08333 6.99658 13.8661C10.9624 12.9424 14.052 9.77844 14.8359 5.76001C16.058 8.41587 19.3551 12.2264 25.0502 11.7646C24.0126 7.81541 20.4618 4.90552 16.1963 4.90552Z" fill="white"/>
<path d="M10.4314 17.6075C11.3865 17.6075 12.1607 16.832 12.1607 15.8754C12.1607 14.9188 11.3865 14.1433 10.4314 14.1433C9.47637 14.1433 8.70215 14.9188 8.70215 15.8754C8.70215 16.832 9.47637 17.6075 10.4314 17.6075Z" fill="white"/>
<path d="M21.9607 17.6075C22.9158 17.6075 23.69 16.832 23.69 15.8754C23.69 14.9188 22.9158 14.1433 21.9607 14.1433C21.0057 14.1433 20.2314 14.9188 20.2314 15.8754C20.2314 16.832 21.0057 17.6075 21.9607 17.6075Z" fill="white"/>
<path d="M30.0301 14.1432C30.0301 6.49901 23.8278 0.286621 16.196 0.286621C8.56415 0.286621 2.36184 6.49901 2.36184 14.1432C1.09371 14.1432 0.0561523 15.1825 0.0561523 16.4527V21.0716C0.0561523 22.3418 1.09371 23.381 2.36184 23.381H4.66754V14.1432C4.66754 7.7692 9.83228 2.59606 16.196 2.59606C22.5597 2.59606 27.7244 7.7692 27.7244 14.1432V25.6904H13.8903V27.9999H27.7244C28.9926 27.9999 30.0301 26.9606 30.0301 25.6904V23.381C31.2983 23.381 32.3358 22.3418 32.3358 21.0716V16.4527C32.3358 15.1825 31.2983 14.1432 30.0301 14.1432Z" fill="white"/>
</svg>
