<svg width="33" height="34" viewBox="0 0 33 34" fill="none" xmlns="http://www.w3.org/2000/svg">
<path d="M16.6906 3.28516C11.6278 3.28516 7.5332 7.64279 7.5332 13.0307C7.5332 20.3398 16.6906 31.1294 16.6906 31.1294C16.6906 31.1294 25.8479 20.3398 25.8479 13.0307C25.8479 7.64279 21.7533 3.28516 16.6906 3.28516ZM10.1496 13.0307C10.1496 9.18815 13.0799 6.06959 16.6906 6.06959C20.3012 6.06959 23.2315 9.18815 23.2315 13.0307C23.2315 17.0402 19.4639 23.0407 16.6906 26.7857C13.9695 23.0685 10.1496 16.9985 10.1496 13.0307Z" fill="white"/>
<path d="M16.6904 16.5111C18.4966 16.5111 19.9609 14.9528 19.9609 13.0306C19.9609 11.1083 18.4966 9.55005 16.6904 9.55005C14.8842 9.55005 13.4199 11.1083 13.4199 13.0306C13.4199 14.9528 14.8842 16.5111 16.6904 16.5111Z" fill="white"/>
</svg>
