<svg width="36" height="36" viewBox="0 0 36 36" fill="none" xmlns="http://www.w3.org/2000/svg">
<path d="M17.8758 3.44922C9.6977 3.44922 3.0752 10.0532 3.0752 18.1903C3.0752 26.3273 9.6977 32.9313 17.8758 32.9313C26.0688 32.9313 32.7061 26.3273 32.7061 18.1903C32.7061 10.0532 26.0688 3.44922 17.8758 3.44922ZM17.8906 29.9831C11.3422 29.9831 6.03828 24.7058 6.03828 18.1903C6.03828 11.6747 11.3422 6.39743 17.8906 6.39743C24.4391 6.39743 29.743 11.6747 29.743 18.1903C29.743 24.7058 24.4391 29.9831 17.8906 29.9831ZM18.6314 10.8197H16.4091V19.6644L24.1872 24.3078L25.2984 22.4947L18.6314 18.5588V10.8197Z" fill="white"/>
</svg>
