<svg width="38" height="32" viewBox="0 0 38 32" fill="none" xmlns="http://www.w3.org/2000/svg">
<path d="M18.6369 5.33325C16.8265 5.33325 8.30702 6.69325 8.01416 15.6799C12.5934 14.6133 16.1609 10.9599 17.0661 6.31992C18.4772 9.38659 22.2843 13.7866 28.8603 13.2533C27.6622 8.69326 23.5622 5.33325 18.6369 5.33325Z" fill="white"/>
<path d="M11.9801 20C13.0829 20 13.9769 19.1046 13.9769 18C13.9769 16.8954 13.0829 16 11.9801 16C10.8774 16 9.9834 16.8954 9.9834 18C9.9834 19.1046 10.8774 20 11.9801 20Z" fill="white"/>
<path d="M25.2926 20C26.3954 20 27.2894 19.1046 27.2894 18C27.2894 16.8954 26.3954 16 25.2926 16C24.1899 16 23.2959 16.8954 23.2959 18C23.2959 19.1046 24.1899 20 25.2926 20Z" fill="white"/>
<path d="M34.6104 16C34.6104 7.17333 27.4487 0 18.6364 0C9.82404 0 2.66234 7.17333 2.66234 16C1.19805 16 0 17.2 0 18.6667V24C0 25.4667 1.19805 26.6667 2.66234 26.6667H5.32468V16C5.32468 8.64 11.2883 2.66667 18.6364 2.66667C25.9844 2.66667 31.9481 8.64 31.9481 16V29.3333H15.974V32H31.9481C33.4124 32 34.6104 30.8 34.6104 29.3333V26.6667C36.0747 26.6667 37.2728 25.4667 37.2728 24V18.6667C37.2728 17.2 36.0747 16 34.6104 16Z" fill="white"/>
</svg>
